<svg fill="#000000" xmlns="http://www.w3.org/2000/svg"  viewBox="0 0 24 24" width="48px" height="48px"><path d="M 11.5 2 C 8.416 2 6 5.5822969 6 10.154297 C 6 12.218297 6.5157969 14.04975 7.3417969 15.46875 C 7.2877969 15.63775 7.25 15.814 7.25 16 C 7.25 16.966 8.034 17.75 9 17.75 C 9.966 17.75 10.75 16.966 10.75 16 C 10.75 15.034 9.966 14.25 9 14.25 C 8.981 14.25 8.9623594 14.254859 8.9433594 14.255859 C 8.3683594 13.156859 8 11.724297 8 10.154297 C 8 6.8182969 9.603 4 11.5 4 C 12.786 4 13.934969 5.2969219 14.542969 7.1699219 C 15.285969 7.2889219 16.026672 7.4920937 16.763672 7.7460938 C 16.085672 4.3850938 14.016 2 11.5 2 z M 11.375 8.5 C 10.409 8.5 9.625 9.284 9.625 10.25 C 9.625 11.216 10.409 12 11.375 12 C 12.062 12 12.6505 11.601391 12.9375 11.025391 C 14.2305 11.083391 15.669344 11.458359 17.027344 12.193359 C 18.987344 13.255359 20.465813 14.885219 20.882812 16.449219 C 21.097812 17.252219 21.021156 17.957922 20.660156 18.544922 C 19.942156 19.712922 18.226531 20.180594 16.269531 19.933594 C 15.690531 20.524594 15.0295 21.067594 14.3125 21.558594 C 15.3125 21.850594 16.303328 22.001953 17.236328 22.001953 C 19.470328 22.001953 21.383281 21.18675 22.363281 19.59375 C 23.015281 18.53375 23.171453 17.268594 22.814453 15.933594 C 22.250453 13.826594 20.441516 11.769547 17.978516 10.435547 C 16.179516 9.4605469 14.307281 9.0066719 12.613281 9.0136719 C 12.296281 8.6956719 11.859 8.5 11.375 8.5 z M 4.0976562 11.742188 C 2.6376563 12.951187 1.5905 14.426594 1.1875 15.933594 C 0.8305 17.268594 0.98667187 18.533797 1.6386719 19.591797 C 2.6166719 21.184797 4.530625 22 6.765625 22 C 8.457625 22 10.333 21.536453 12.125 20.564453 C 13.835 19.638453 15.216656 18.362844 16.097656 16.964844 C 16.897656 16.803844 17.5 16.097 17.5 15.25 C 17.5 14.284 16.716 13.5 15.75 13.5 C 14.784 13.5 14 14.284 14 15.25 C 14 15.576 14.095953 15.878625 14.251953 16.140625 C 13.544953 17.155625 12.468828 18.105641 11.173828 18.806641 C 8.0548281 20.495641 4.4658438 20.374969 3.3398438 18.542969 C 2.9788438 17.955969 2.9041406 17.252219 3.1191406 16.449219 C 3.3371406 15.634219 3.8475469 14.801063 4.5605469 14.039062 C 4.3425469 13.314063 4.1876563 12.545187 4.0976562 11.742188 z"/></svg>
