<svg width="44" height="12" viewBox="0 0 44 12" fill="none" xmlns="http://www.w3.org/2000/svg">
<path d="M1.99995 2.66676C-5.29289e-05 5.06676 0.666614 8.66676 3.73328 10.5334C8.26661 13.4668 13.4666 6.93342 9.99995 2.66676C7.86661 0.133425 4.13328 0.133425 1.99995 2.66676Z" fill="#ED952E"/>
<path d="M17.9999 2.66676C15.9999 5.06676 16.6666 8.66676 19.7333 10.5334C24.2666 13.4668 29.4666 6.93342 25.9999 2.66676C23.8666 0.133425 20.1333 0.133425 17.9999 2.66676Z" fill="#ED952E"/>
<path d="M33.9999 2.66676C31.9999 5.06676 32.6666 8.66676 35.7333 10.5334C40.2666 13.4668 45.4666 6.93342 41.9999 2.66676C39.8666 0.133425 36.1333 0.133425 33.9999 2.66676Z" fill="#ED952E"/>
</svg>
