<svg width="19" height="19" viewBox="0 0 19 19" fill="none" xmlns="http://www.w3.org/2000/svg">
<path d="M17.6645 2.6163C17.4901 2.69795 16.6626 3.51064 11.727 8.44248L5.99364 14.1759L3.74852 11.9345C2.51278 10.7024 1.44403 9.66338 1.37352 9.62627C1.19169 9.52978 0.738953 9.52978 0.545984 9.62627C0.345594 9.72646 0.189734 9.89345 0.0821171 10.1272C-0.029211 10.3685 -0.0180782 10.6542 0.111805 10.914C0.226844 11.144 5.33309 16.2503 5.56317 16.3653C5.65595 16.4099 5.82294 16.4581 5.94169 16.4655C6.1161 16.4841 6.18661 16.4692 6.36845 16.3876C6.56512 16.2985 7.16259 15.7159 12.6993 10.1755C18.2397 4.63877 18.8224 4.0413 18.9114 3.84463C18.9931 3.66279 19.0079 3.59228 18.9893 3.41416C18.9448 2.92431 18.5849 2.56806 18.0913 2.53466C17.9095 2.52353 17.8315 2.53466 17.6645 2.6163Z" fill="#80E296"/>
</svg>
