<svg width="25" height="25" viewBox="0 0 25 25" fill="none" xmlns="http://www.w3.org/2000/svg">
<path d="M14.1927 2.55209C13.776 2.83855 11.4583 5.05209 9.08855 7.44792L4.73959 11.849L4.21876 14.1927C2.57813 21.5625 2.50001 21.875 2.81251 22.1875C3.04688 22.4219 4.06251 22.2656 6.95313 21.6406C13.75 20.1563 12.8125 20.6771 17.9948 15.4427C20.5208 12.8906 22.6823 10.5208 22.7865 10.2083C23.2031 8.82813 22.7344 8.02084 19.8438 5.13022C17.3958 2.6823 16.875 2.29167 15.9896 2.18751C15.2604 2.08334 14.7396 2.18751 14.1927 2.55209ZM7.6823 13.6198C7.83855 14.0104 8.38542 14.5573 8.88021 14.7917C9.37501 15.026 9.97396 15.625 10.2083 16.1198C10.4427 16.6146 10.9896 17.1615 11.3802 17.3177C11.7708 17.5 12.2656 17.8125 12.4479 18.0469C12.8906 18.5677 12.6302 18.724 10.2604 19.2708L8.38542 19.7135L6.82292 18.125L5.28646 16.5365L5.72917 14.7135C6.27605 12.3698 6.4323 12.1094 6.95313 12.5521C7.18751 12.7344 7.50001 13.2292 7.6823 13.6198Z" fill="black" fill-opacity="0.49"/>
</svg>
