<?xml version="1.0" standalone="no"?>
<!DOCTYPE svg PUBLIC "-//W3C//DTD SVG 20010904//EN"
 "http://www.w3.org/TR/2001/REC-SVG-20010904/DTD/svg10.dtd">
<svg version="1.0" xmlns="http://www.w3.org/2000/svg"
 width="512.000000pt" height="512.000000pt" viewBox="0 0 512.000000 512.000000"
 preserveAspectRatio="xMidYMid meet">

<g transform="translate(0.000000,512.000000) scale(0.100000,-0.100000)"
fill="#FFFAF3" stroke="none">
<path d="M1678 4330 c-241 -41 -432 -207 -514 -450 -18 -53 -19 -110 -19
-1320 0 -1210 1 -1267 19 -1320 71 -208 219 -360 419 -427 l82 -28 895 0 895
0 82 28 c211 71 369 240 423 453 19 74 20 114 20 865 l0 788 -552 3 -553 3
-65 31 c-81 39 -145 96 -187 165 -62 103 -63 118 -63 696 l0 523 -417 -1
c-230 -1 -439 -5 -465 -9z"/>
<path d="M2842 3810 l3 -505 23 -36 c43 -71 32 -69 586 -67 l496 3 -555 555
-556 555 3 -505z"/>
</g>
</svg>
