<svg width="20" height="21" viewBox="0 0 20 21" fill="none" xmlns="http://www.w3.org/2000/svg">
<path d="M1.3066 1.02917C1.2303 1.06044 1.14255 1.10344 1.11203 1.1269C1.01283 1.21291 0.936523 1.43575 0.936523 1.63513C0.936523 1.79932 2.54275 9.28198 2.58472 9.32108C2.59616 9.33281 10.3793 10.7167 11.3255 10.877C11.5925 10.9239 11.81 10.9709 11.81 10.9826C11.81 10.9943 11.5925 11.0412 11.3255 11.0881C10.3755 11.2484 2.59616 12.6324 2.58472 12.6441C2.54275 12.6832 0.936523 20.1659 0.936523 20.3301C0.936523 20.7914 1.27227 21.0689 1.69576 20.9517C1.89034 20.8969 19.6199 11.5886 19.7381 11.4752C19.8793 11.3462 19.9365 11.2015 19.9365 10.9826C19.9365 10.7637 19.8793 10.619 19.7381 10.49C19.6275 10.3844 1.90178 1.06826 1.70721 1.01353C1.52789 0.962705 1.48592 0.966615 1.3066 1.02917Z" fill="#0098ED"/>
</svg>
