<svg width="16" height="18" viewBox="0 0 16 18" fill="none" xmlns="http://www.w3.org/2000/svg">
<g clip-path="url(#clip0_201_2)">
<path d="M5.95938 2.27813C4.84688 3.52969 3.9375 4.57031 3.9375 4.58789C3.9375 4.60898 4.2125 4.93242 4.54688 5.30859L5.15625 5.99414L6.57813 4.39453L8 2.79492L9.42188 4.39453L10.8438 5.99414L11.4531 5.30859C11.7875 4.93242 12.0625 4.60898 12.0625 4.58789C12.0625 4.55273 8.03125 1.5879e-07 8 1.5879e-07C7.99063 1.5879e-07 7.075 1.02305 5.95938 2.27813Z" fill="black" fill-opacity="0.3"/>
<path d="M4.5375 12.702C4.20938 13.0746 3.9375 13.3945 3.9375 13.4121C3.9375 13.4332 4.85313 14.4773 5.96875 15.7324L8 18.0176L10.0313 15.7324C11.15 14.4773 12.0625 13.4332 12.0625 13.4121C12.0625 13.391 11.7875 13.0676 11.4531 12.6914L10.8438 12.0059L9.42188 13.6055L8 15.2051L6.58438 13.6125C5.80938 12.7406 5.16563 12.0234 5.15625 12.0234C5.14688 12.0234 4.86875 12.3293 4.5375 12.702Z" fill="black" fill-opacity="0.3"/>
</g>
<defs>
<clipPath id="clip0_201_2">
<rect width="16" height="18" fill="white"/>
</clipPath>
</defs>
</svg>
