<svg width="60" height="60" viewBox="0 0 60 60" fill="none" xmlns="http://www.w3.org/2000/svg">
<path d="M41.0859 10.4883C40.7461 9.70312 39.8555 9.25781 38.9414 9.43359C38.543 9.50391 37.4063 10.6055 28.6875 19.3125C19.9805 28.0312 18.8789 29.168 18.8086 29.5664C18.5977 30.668 18.0352 30.0234 28.6875 40.6875C39.3398 51.3398 38.707 50.7773 39.8086 50.5664C40.3828 50.4609 41.0859 49.7578 41.1914 49.1836C41.4023 48.082 41.8828 48.6445 32.1914 38.9297L23.2617 30L32.1328 21.1172C37.1016 16.1484 41.0625 12.1055 41.1328 11.918C41.2969 11.4727 41.2734 10.9219 41.0859 10.4883Z" fill="#C8C4BF"/>
</svg>
