<?xml version="1.0" standalone="no"?>
<!DOCTYPE svg PUBLIC "-//W3C//DTD SVG 20010904//EN"
 "http://www.w3.org/TR/2001/REC-SVG-20010904/DTD/svg10.dtd">
<svg version="1.0" xmlns="http://www.w3.org/2000/svg"
 width="96.000000pt" height="96.000000pt" viewBox="0 0 96.000000 96.000000"
 preserveAspectRatio="xMidYMid meet">

<g transform="translate(0.000000,96.000000) scale(0.100000,-0.100000)"
fill="#FFFAF3" stroke="none">
<path d="M280 831 c-91 -28 -171 -101 -190 -173 -14 -49 -7 -121 15 -154 9
-14 15 -54 17 -105 4 -101 14 -108 83 -56 42 33 48 34 83 25 20 -6 64 -8 97
-6 139 12 255 119 255 238 0 91 -80 191 -179 223 -55 18 -137 21 -181 8z"/>
<path d="M716 563 c-19 -139 -149 -260 -303 -279 l-54 -6 28 -30 c63 -67 197
-104 285 -80 35 9 41 8 83 -25 69 -52 79 -45 83 56 2 51 8 91 17 105 21 32 29
105 16 152 -12 46 -70 118 -112 139 -15 8 -30 15 -32 15 -2 0 -7 -21 -11 -47z"/>
</g>
</svg>
