<svg width="20" height="20" viewBox="0 0 20 20" fill="none" xmlns="http://www.w3.org/2000/svg">
<g clip-path="url(#clip0_94_2)">
<path d="M7.73442 0.0820312C7.29692 0.277344 7.26567 0.367188 7.04692 1.84375C6.94927 2.51562 6.86333 3.07031 6.86333 3.07031C6.85942 3.07422 6.74223 3.13281 6.60161 3.20312C6.46098 3.27344 6.17973 3.4375 5.97661 3.56641C5.77348 3.69531 5.58598 3.80078 5.56255 3.80078C5.53911 3.80078 5.01958 3.60156 4.4102 3.35547C3.41411 2.95703 3.27739 2.91016 3.06645 2.91406C2.79692 2.91406 2.56645 3.01562 2.41411 3.19922C2.28911 3.34375 0.363328 6.67188 0.30864 6.83594C0.234421 7.04688 0.281296 7.40234 0.414109 7.58594C0.484421 7.68359 0.90239 8.04297 1.46489 8.48438L2.40239 9.21484L2.4063 9.99609L2.41411 10.7773L1.4727 11.5117C0.957078 11.9141 0.488328 12.3125 0.425828 12.3945C0.304734 12.5625 0.253953 12.8086 0.289109 13.0586C0.324265 13.2969 2.2813 16.6836 2.50005 16.8789C2.68364 17.0469 2.94145 17.1289 3.17583 17.0977C3.26567 17.082 3.82427 16.8789 4.41411 16.6406C5.00395 16.4023 5.51567 16.2031 5.54692 16.2031C5.57817 16.1992 5.75786 16.2969 5.94145 16.418C6.12895 16.5352 6.4102 16.6992 6.56645 16.7773C6.72661 16.8594 6.85942 16.9258 6.86333 16.9297C6.86723 16.9336 6.94927 17.4844 7.04692 18.1562C7.26567 19.6328 7.29692 19.7227 7.73442 19.918C7.90239 19.9961 7.98052 20 10 20H12.0899L12.2891 19.9062C12.5235 19.7969 12.711 19.582 12.7657 19.3594C12.7891 19.2734 12.879 18.6914 12.9688 18.0664C13.0586 17.4453 13.1329 16.9297 13.1368 16.9297C13.1407 16.9258 13.2735 16.8594 13.4336 16.7773C13.5899 16.6992 13.8711 16.5352 14.0586 16.418C14.2422 16.2969 14.4219 16.1992 14.4532 16.2031C14.4844 16.2031 14.9961 16.4023 15.586 16.6406C16.1758 16.8789 16.7305 17.082 16.8204 17.0938C17.086 17.1328 17.3907 17.0195 17.5586 16.8242C17.6875 16.6797 19.1875 14.1328 19.5743 13.4062C19.7461 13.0859 19.7774 12.8086 19.668 12.5469C19.5782 12.3398 19.5274 12.293 18.5118 11.4961L17.5899 10.7734L17.5938 9.99609L17.5977 9.21484L18.5352 8.48438C19.0977 8.04297 19.5157 7.68359 19.586 7.58594C19.7188 7.39844 19.7657 7.04688 19.6915 6.83203C19.668 6.76562 19.1993 5.92969 18.6485 4.97656C17.9454 3.75781 17.6055 3.20312 17.5 3.10938C17.3204 2.94922 17.0782 2.875 16.836 2.90234C16.7383 2.91797 16.1758 3.12109 15.586 3.35938C14.9961 3.59766 14.4844 3.79688 14.4532 3.79688C14.4219 3.80078 14.2461 3.70312 14.0625 3.58594C13.879 3.46484 13.5938 3.30078 13.4297 3.21875C13.2618 3.13672 13.125 3.05469 13.125 3.04297C13.125 3.02734 13.0469 2.47656 12.9532 1.82422C12.7422 0.378906 12.7032 0.28125 12.2657 0.0820312C12.0977 0.00390625 12.0196 0 10 0C7.98052 0 7.90239 0.00390625 7.73442 0.0820312ZM11.004 6.83203C11.4219 6.96875 11.5352 7.02344 11.8555 7.23828C12.211 7.48047 12.5235 7.79688 12.7696 8.16797C13.5079 9.26953 13.5079 10.7305 12.7696 11.832C12.3125 12.5156 11.7227 12.9492 10.8985 13.207C10.6446 13.2852 10.5235 13.3008 10 13.2969C9.52348 13.2969 9.3438 13.2812 9.1602 13.2266C8.08598 12.8984 7.30083 12.2031 6.91802 11.2422C6.17583 9.38281 7.22661 7.29297 9.1602 6.78125C9.51958 6.6875 9.55473 6.68359 10.1172 6.69922C10.5821 6.71094 10.6875 6.72656 11.004 6.83203Z" fill="#807F7E"/>
</g>
<defs>
<clipPath id="clip0_94_2">
<rect width="20" height="20" fill="white"/>
</clipPath>
</defs>
</svg>
