<svg width="25" height="25" viewBox="0 0 25 25" fill="none" xmlns="http://www.w3.org/2000/svg">
<path d="M9.76571 2.60417C9.40112 3.02083 8.90633 3.125 6.95321 3.17708C5.05216 3.22917 4.55737 3.33333 4.323 3.69792C4.11466 4.03646 4.11466 4.29687 4.323 4.60937C4.58341 5.05208 5.2605 5.07812 12.5001 5.07812C19.7397 5.07812 20.4167 5.05208 20.6772 4.60937C20.8855 4.29687 20.8855 4.03646 20.6772 3.69792C20.4428 3.33333 19.948 3.22917 18.047 3.17708C16.0938 3.125 15.599 3.02083 15.2345 2.60417C14.8438 2.16146 14.4272 2.08333 12.5001 2.08333C10.573 2.08333 10.1563 2.16146 9.76571 2.60417Z" fill="black" fill-opacity="0.5"/>
<path d="M5.2085 14.4532V21.6407L5.85954 22.2657L6.48454 22.9167H12.5002H18.5158L19.1408 22.2657L19.7918 21.6407V14.4532V7.29175H12.5002H5.2085V14.4532ZM10.1304 9.73967C10.3387 9.97404 10.4168 11.6667 10.3647 15.2345C10.2866 19.8178 10.2345 20.4167 9.84391 20.6772C9.50537 20.8855 9.24496 20.8855 8.93245 20.6772C8.51579 20.4167 8.4637 19.8178 8.38558 15.2345C8.3335 11.6667 8.41162 9.97404 8.61995 9.73967C9.01058 9.27092 9.73975 9.27092 10.1304 9.73967ZM16.3804 9.73967C16.5887 9.97404 16.6668 11.6667 16.6147 15.2345C16.5366 19.8178 16.4845 20.4167 16.0939 20.6772C15.7554 20.8855 15.495 20.8855 15.1825 20.6772C14.7658 20.4167 14.7137 19.8178 14.6356 15.2345C14.5835 11.6667 14.6616 9.97404 14.87 9.73967C15.2606 9.27092 15.9897 9.27092 16.3804 9.73967Z" fill="black" fill-opacity="0.5"/>
</svg>
